<svg id="svg" version="1.1" xmlns="http://www.w3.org/2000/svg" xmlns:xlink="http://www.w3.org/1999/xlink" width="400" height="265.59999999999997" viewBox="0, 0, 400,265.59999999999997"><g id="svgg"><path id="path0" d="M172.244 69.038 C 170.857 69.373,170.222 69.865,169.704 71.004 C 169.017 72.518,168.893 181.656,169.577 182.979 C 170.437 184.642,169.800 184.596,191.541 184.586 C 212.923 184.576,213.686 184.532,216.993 183.138 C 217.939 182.739,219.732 182.054,220.977 181.616 C 229.525 178.610,236.862 170.766,239.929 161.355 C 241.810 155.581,241.996 152.992,242.158 130.412 C 242.358 102.643,241.772 96.003,238.514 89.049 C 233.093 77.481,223.399 71.486,207.200 69.684 C 205.212 69.463,202.689 69.178,201.594 69.051 C 199.208 68.775,173.384 68.763,172.244 69.038 M207.514 86.830 C 216.063 89.192,219.937 92.588,222.087 99.606 L 222.695 101.594 222.781 125.631 C 222.891 156.357,222.809 156.995,218.065 162.119 C 213.785 166.742,209.810 167.811,198.008 167.511 C 190.937 167.331,189.583 166.933,188.680 164.771 C 188.210 163.646,188.130 91.110,188.597 89.428 C 189.011 87.937,190.105 86.860,191.642 86.432 C 193.856 85.815,204.835 86.090,207.514 86.830 M106.906 92.586 C 105.737 93.104,103.227 94.283,101.328 95.206 C 99.429 96.128,97.576 96.970,97.211 97.076 C 96.846 97.182,95.651 97.724,94.555 98.280 C 90.751 100.210,84.326 103.262,83.665 103.452 C 83.300 103.557,82.105 104.102,81.009 104.663 C 79.914 105.225,76.926 106.648,74.369 107.826 C 71.813 109.004,68.645 110.493,67.331 111.135 C 60.075 114.677,57.160 116.069,56.999 116.069 C 56.782 116.069,51.175 118.736,47.069 120.792 C 41.516 123.573,41.703 123.142,41.701 133.160 C 41.699 143.210,40.936 142.131,51.624 147.183 C 55.004 148.780,58.546 150.491,59.495 150.984 C 60.445 151.478,61.879 152.137,62.683 152.448 C 63.486 152.759,65.637 153.740,67.463 154.628 C 72.171 156.918,74.872 158.201,80.478 160.807 C 83.181 162.064,86.288 163.554,87.384 164.119 C 88.479 164.685,89.675 165.234,90.040 165.340 C 90.405 165.447,92.258 166.285,94.157 167.203 C 97.343 168.743,101.277 170.577,106.658 173.032 C 111.219 175.112,111.889 174.409,112.037 167.391 C 112.231 158.159,112.529 158.531,100.531 153.027 C 93.042 149.591,89.251 147.825,86.418 146.453 C 84.792 145.665,83.369 145.020,83.258 145.020 C 83.031 145.020,76.992 142.234,72.908 140.245 C 71.448 139.534,69.353 138.596,68.255 138.162 C 67.156 137.727,65.841 137.128,65.333 136.832 C 64.825 136.535,63.477 135.924,62.338 135.474 C 56.585 133.203,57.834 131.391,67.862 127.457 C 69.091 126.975,71.054 126.080,79.150 122.310 C 80.830 121.528,84.057 120.039,86.321 119.002 C 88.586 117.965,91.335 116.656,92.430 116.092 C 93.526 115.528,95.259 114.736,96.282 114.332 C 97.304 113.928,98.738 113.266,99.469 112.860 C 100.199 112.454,101.719 111.758,102.845 111.313 C 105.918 110.101,110.463 107.558,111.062 106.717 C 112.856 104.198,112.357 92.318,110.436 91.804 C 109.433 91.535,109.122 91.604,106.906 92.586 M298.880 91.954 C 297.483 92.628,296.905 103.907,298.141 106.372 C 298.731 107.550,301.938 109.723,304.648 110.781 C 305.452 111.094,307.185 111.866,308.499 112.495 C 315.009 115.612,319.409 117.663,319.585 117.663 C 319.777 117.663,324.733 119.988,329.482 122.306 C 332.942 123.995,339.686 127.104,340.770 127.510 C 341.282 127.701,342.565 128.309,343.622 128.861 C 344.680 129.412,346.194 130.053,346.989 130.284 C 352.925 132.009,351.164 134.403,340.819 138.667 C 339.458 139.228,337.964 139.921,337.499 140.207 C 337.034 140.493,335.697 141.105,334.529 141.567 C 333.360 142.028,331.806 142.746,331.076 143.161 C 330.345 143.576,328.792 144.291,327.623 144.751 C 326.454 145.211,324.866 145.941,324.094 146.374 C 323.322 146.806,322.097 147.394,321.371 147.680 C 320.646 147.966,318.708 148.847,317.065 149.638 C 315.421 150.429,312.463 151.813,310.491 152.714 C 300.955 157.073,298.708 158.363,298.094 159.831 C 297.590 161.039,297.336 168.124,297.697 170.913 C 298.274 175.366,298.529 175.315,314.729 167.528 C 316.256 166.794,318.341 165.849,319.362 165.428 C 320.384 165.006,321.764 164.356,322.429 163.983 C 323.095 163.609,324.353 163.001,325.225 162.633 C 326.825 161.956,331.442 159.785,335.857 157.633 C 340.957 155.146,345.722 152.913,347.002 152.409 C 347.738 152.119,349.117 151.478,350.066 150.984 C 351.016 150.491,353.884 149.118,356.441 147.934 C 368.828 142.199,367.996 143.279,367.991 132.935 C 367.985 123.083,368.212 123.526,361.511 120.297 C 359.672 119.410,357.390 118.288,356.441 117.804 C 355.491 117.319,353.758 116.528,352.590 116.045 C 351.421 115.563,349.807 114.797,349.004 114.344 C 348.201 113.891,347.027 113.315,346.395 113.063 C 345.764 112.811,343.852 111.936,342.146 111.119 C 340.440 110.301,337.729 109.001,336.122 108.231 C 334.515 107.461,332.483 106.529,331.607 106.159 C 330.730 105.790,329.469 105.183,328.804 104.809 C 328.139 104.435,326.764 103.785,325.749 103.364 C 323.931 102.608,317.856 99.727,315.007 98.267 C 314.203 97.856,312.888 97.263,312.085 96.949 C 311.282 96.636,309.608 95.865,308.367 95.236 C 302.471 92.249,300.023 91.402,298.880 91.954 " stroke="none" fill="#d4d4d4" fill-rule="evenodd"></path><path id="path1" d="M0.000 132.802 L 0.000 265.604 200.000 265.604 L 400.000 265.604 400.000 132.802 L 400.000 0.000 200.000 0.000 L 0.000 0.000 0.000 132.802 M201.594 69.051 C 202.689 69.178,205.212 69.463,207.200 69.684 C 217.083 70.784,222.418 72.566,228.271 76.723 C 235.683 81.987,240.542 90.482,241.409 99.690 C 242.639 112.745,242.480 149.386,241.162 156.839 C 239.205 167.906,230.871 178.137,220.977 181.616 C 219.732 182.054,217.939 182.739,216.993 183.138 C 213.686 184.532,212.923 184.576,191.541 184.586 C 169.800 184.596,170.437 184.642,169.577 182.979 C 168.893 181.656,169.017 72.518,169.704 71.004 C 170.222 69.865,170.857 69.373,172.244 69.038 C 173.384 68.763,199.208 68.775,201.594 69.051 M191.642 86.432 C 190.105 86.860,189.011 87.937,188.597 89.428 C 188.130 91.110,188.210 163.646,188.680 164.771 C 189.583 166.933,190.937 167.331,198.008 167.511 C 209.810 167.811,213.785 166.742,218.065 162.119 C 222.809 156.995,222.891 156.357,222.781 125.631 L 222.695 101.594 222.087 99.606 C 219.937 92.588,216.063 89.192,207.514 86.830 C 204.835 86.090,193.856 85.815,191.642 86.432 M110.436 91.804 C 112.357 92.318,112.856 104.198,111.062 106.717 C 110.463 107.558,105.918 110.101,102.845 111.313 C 101.719 111.758,100.199 112.454,99.469 112.860 C 98.738 113.266,97.304 113.928,96.282 114.332 C 95.259 114.736,93.526 115.528,92.430 116.092 C 91.335 116.656,88.586 117.965,86.321 119.002 C 84.057 120.039,80.830 121.528,79.150 122.310 C 71.054 126.080,69.091 126.975,67.862 127.457 C 57.834 131.391,56.585 133.203,62.338 135.474 C 63.477 135.924,64.825 136.535,65.333 136.832 C 65.841 137.128,67.156 137.727,68.255 138.162 C 69.353 138.596,71.448 139.534,72.908 140.245 C 76.992 142.234,83.031 145.020,83.258 145.020 C 83.369 145.020,84.792 145.665,86.418 146.453 C 89.251 147.825,93.042 149.591,100.531 153.027 C 112.529 158.531,112.231 158.159,112.037 167.391 C 111.889 174.409,111.219 175.112,106.658 173.032 C 101.277 170.577,97.343 168.743,94.157 167.203 C 92.258 166.285,90.405 165.447,90.040 165.340 C 89.675 165.234,88.479 164.685,87.384 164.119 C 86.288 163.554,83.181 162.064,80.478 160.807 C 74.872 158.201,72.171 156.918,67.463 154.628 C 65.637 153.740,63.486 152.759,62.683 152.448 C 61.879 152.137,60.445 151.478,59.495 150.984 C 58.546 150.491,55.004 148.780,51.624 147.183 C 40.936 142.131,41.699 143.210,41.701 133.160 C 41.703 123.142,41.516 123.573,47.069 120.792 C 51.175 118.736,56.782 116.069,56.999 116.069 C 57.160 116.069,60.075 114.677,67.331 111.135 C 68.645 110.493,71.813 109.004,74.369 107.826 C 76.926 106.648,79.914 105.225,81.009 104.663 C 82.105 104.102,83.300 103.557,83.665 103.452 C 84.326 103.262,90.751 100.210,94.555 98.280 C 95.651 97.724,96.846 97.182,97.211 97.076 C 97.576 96.970,99.429 96.128,101.328 95.206 C 108.344 91.797,109.207 91.475,110.436 91.804 M303.269 92.863 C 304.831 93.539,307.125 94.607,308.367 95.236 C 309.608 95.865,311.282 96.636,312.085 96.949 C 312.888 97.263,314.203 97.856,315.007 98.267 C 317.856 99.727,323.931 102.608,325.749 103.364 C 326.764 103.785,328.139 104.435,328.804 104.809 C 329.469 105.183,330.730 105.790,331.607 106.159 C 332.483 106.529,334.515 107.461,336.122 108.231 C 337.729 109.001,340.440 110.301,342.146 111.119 C 343.852 111.936,345.764 112.811,346.395 113.063 C 347.027 113.315,348.201 113.891,349.004 114.344 C 349.807 114.797,351.421 115.563,352.590 116.045 C 353.758 116.528,355.491 117.319,356.441 117.804 C 357.390 118.288,359.672 119.410,361.511 120.297 C 368.212 123.526,367.985 123.083,367.991 132.935 C 367.996 143.279,368.828 142.199,356.441 147.934 C 353.884 149.118,351.016 150.491,350.066 150.984 C 349.117 151.478,347.738 152.119,347.002 152.409 C 345.722 152.913,340.957 155.146,335.857 157.633 C 331.442 159.785,326.825 161.956,325.225 162.633 C 324.353 163.001,323.095 163.609,322.429 163.983 C 321.764 164.356,320.384 165.006,319.362 165.428 C 318.341 165.849,316.256 166.794,314.729 167.528 C 298.529 175.315,298.274 175.366,297.697 170.913 C 297.336 168.124,297.590 161.039,298.094 159.831 C 298.708 158.363,300.955 157.073,310.491 152.714 C 312.463 151.813,315.421 150.429,317.065 149.638 C 318.708 148.847,320.646 147.966,321.371 147.680 C 322.097 147.394,323.322 146.806,324.094 146.374 C 324.866 145.941,326.454 145.211,327.623 144.751 C 328.792 144.291,330.345 143.576,331.076 143.161 C 331.806 142.746,333.360 142.028,334.529 141.567 C 335.697 141.105,337.034 140.493,337.499 140.207 C 337.964 139.921,339.458 139.228,340.819 138.667 C 351.164 134.403,352.925 132.009,346.989 130.284 C 346.194 130.053,344.680 129.412,343.622 128.861 C 342.565 128.309,341.282 127.701,340.770 127.510 C 339.686 127.104,332.942 123.995,329.482 122.306 C 324.733 119.988,319.777 117.663,319.585 117.663 C 319.409 117.663,315.009 115.612,308.499 112.495 C 307.185 111.866,305.452 111.094,304.648 110.781 C 298.357 108.325,297.610 107.152,297.610 99.734 C 297.610 91.043,297.992 90.579,303.269 92.863 " stroke="none" fill="#7c7c7c" fill-rule="evenodd"></path></g></svg>